<?xml version="1.0" encoding="utf-8"?>
<!-- Generator: Adobe Illustrator 23.0.1, SVG Export Plug-In . SVG Version: 6.00 Build 0)  -->
<svg version="1.1" id="Layer_1" xmlns="http://www.w3.org/2000/svg" xmlns:xlink="http://www.w3.org/1999/xlink" x="0px" y="0px"
	 viewBox="0 0 277.9 134.7" style="enable-background:new 0 0 277.9 134.7;" xml:space="preserve">
<style type="text/css">
	.st0{fill:#00AD8C;}
</style>
<g>
	<path class="st0" d="M142.9,64c0,14.1-11.5,25.7-25.6,25.7l-18.8,0H85.8c0,0-0.3,0-0.3,0c0,0,0.1,0,0.1,0c-6.6,0-12-5.4-12-12v-0.3
		c0,0,0-56.3,0-56.5c0-0.1-0.1-2.3-0.1-2.3c0,0,0-0.1,0-0.1c0-1.2-0.9-2.1-2.1-2.1c-0.8,0-1.3,0.4-1.5,0.7c-0.3,0.3-1.2,1.6-1.2,1.6
		c0,0.1-0.1,0.1-0.1,0.2L37.9,55.1h19.8c3.3,0,6,2.7,6,6c0,3.3-2.7,6-6,6H27.8L10.2,87.9c-2.1,2.5-5.9,2.9-8.5,0.7
		c-1.4-1.2-2.1-2.9-2.1-4.6c0-1.4,0.5-2.7,1.4-3.9c0,0,58.1-68.9,58.3-69.1c0.1-0.2,1.3-1.7,1.3-1.7c0.1-0.1,0.1-0.2,0.2-0.3
		c2.7-3.1,6.6-4.8,10.6-4.8c7.8,0,14.1,6.3,14.1,14.1c0,0,0-0.1,0-0.1l0.1,2.4c0,0,0,0.1,0,0.1c0,0,0,56.7,0,56.8c0,0,0.2,0,0.2,0
		c0.1,0,12.6,0,12.6,0l18.8,0c7.5,0,13.6-6.1,13.6-13.6c0-7.5-6-13.5-13.5-13.6c-0.1,0-0.2,0-0.3,0c-0.1,0-0.1,0-0.2,0H101
		c-3.3,0-6-2.7-6-6c0-3.3,2.7-6,6-6h16.2c0,0,0,0,0,0c6-0.1,10.9-5,10.9-11.1c0-6.1-5-11.1-11.1-11.1l-15.9,0c-3.3,0-6-2.7-6-6
		c0-3.3,2.7-6,6-6l15.9,0c12.8,0,23.1,10.4,23.1,23.1c0,6.5-2.7,12.4-7.1,16.6C139.1,48.6,142.9,55.8,142.9,64z M272.8,80.1
		c0,0-17.2-20.4-23.7-28.1c6.4-5,10.4-12.8,10.4-21.2c0-14.5-11.4-26.3-25.9-26.7c-0.1,0-0.1,0-0.2,0l-14.2,0l-6.3,0
		c-3.3,0-6,2.7-6,6V77c0,0,0,0.5,0,0.6c-0.1,0-0.9,0-0.9,0s-34.1,0-43.4,0c0-4.2,0-15.4,0-27.2h27.7c3.3,0,6-2.7,6-6
		c0-3.3-2.7-6-6-6h-27.7c0-9.9,0-18.7,0-22.3c8.5,0,29.2,0,29.2,0c3.3,0,6-2.7,6-6c0-3.3-2.7-6-6-6h-35.2c-3.3,0-6,2.7-6,6l0,73.6
		c0,1.6,0.6,3.1,1.8,4.3c1.1,1.1,2.7,1.8,4.3,1.8l49.4,0l1,0c6.6,0,12-5.4,12-12l0-0.7c0,0,0-50.8,0-60.7c0,0,14.1,0,14.4,0
		c7.9,0.3,14.2,6.7,14.2,14.7c0,6.2-3.9,11.7-9.7,13.8c-1.9,0.7-3.3,2.2-3.8,4.1c-0.1,0.5-0.2,1-0.2,1.6c0,1.4,0.5,2.8,1.4,3.9
		l28.4,33.7c2.1,2.5,5.9,2.9,8.5,0.7c1.4-1.2,2.1-2.9,2.1-4.6C274.2,82.6,273.7,81.3,272.8,80.1z"/>
	<g>
		<path d="M7.7,127.6H3.4v-12.8h-3.5v-3.6h11.4v3.6H7.7V127.6z"/>
		<path d="M27.1,127.6h-5.3l-4-6.3h0v6.3h-4.3v-16.5h6.4c3.3,0,5.7,1.5,5.7,5.1c0,2.3-1.3,4.2-3.6,4.7L27.1,127.6z M17.7,118.6h0.4
			c1.4,0,3-0.3,3-2.1c0-1.8-1.6-2.1-3-2.1h-0.4V118.6z"/>
		<path d="M43.2,111.2v9.3c0,2.1-0.1,4.2-1.7,5.8c-1.4,1.4-3.5,1.8-5.5,1.8c-1.9,0-4.1-0.5-5.5-1.8c-1.6-1.6-1.7-3.7-1.7-5.8v-9.3
			h4.3v8.7c0,2.1,0.2,4.5,2.9,4.5c2.8,0,2.9-2.3,2.9-4.5v-8.7H43.2z"/>
		<path d="M55.6,115.4c-0.8-0.7-1.8-1.1-2.8-1.1c-0.8,0-1.8,0.5-1.8,1.4c0,1,1.2,1.3,1.9,1.6l1.1,0.3c2.3,0.7,4.1,1.8,4.1,4.5
			c0,1.6-0.4,3.3-1.7,4.4c-1.3,1.1-3,1.6-4.7,1.6c-2.1,0-4.1-0.7-5.8-1.9l1.8-3.4c1.1,0.9,2.3,1.7,3.8,1.7c1,0,2.1-0.5,2.1-1.7
			c0-1.2-1.7-1.6-2.6-1.9c-2.7-0.8-4.5-1.5-4.5-4.7c0-3.3,2.4-5.5,5.7-5.5c1.7,0,3.7,0.5,5.2,1.4L55.6,115.4z"/>
		<path d="M67.2,127.6h-4.3v-12.8h-3.5v-3.6h11.4v3.6h-3.5V127.6z"/>
		<path d="M77.2,114.8v2.8H82v3.6h-4.8v2.8h5.1v3.6h-9.4v-16.5h9.4v3.6H77.2z"/>
		<path d="M85.6,111.2h6.1c4.6,0,8.4,3.6,8.4,8.2c0,4.6-3.8,8.2-8.4,8.2h-6.1V111.2z M89.9,124h1c2.6,0,4.7-1.4,4.7-4.6
			c0-2.9-1.9-4.6-4.7-4.6h-1V124z"/>
		<path d="M117.4,127.6h-4.3v-12.8h-3.5v-3.6h11.4v3.6h-3.5V127.6z"/>
		<path d="M127.4,114.8v2.8h4.8v3.6h-4.8v2.8h5.1v3.6h-9.4v-16.5h9.4v3.6H127.4z"/>
		<path d="M147.5,116.7c-0.9-1.2-2.3-1.8-3.8-1.8c-2.6,0-4.4,2-4.4,4.6c0,2.6,1.8,4.5,4.5,4.5c1.4,0,2.8-0.7,3.7-1.7v5.1
			c-1.4,0.4-2.4,0.8-3.8,0.8c-2.3,0-4.5-0.9-6.2-2.4c-1.8-1.6-2.6-3.8-2.6-6.2c0-2.2,0.9-4.4,2.4-6c1.6-1.7,4-2.7,6.3-2.7
			c1.4,0,2.6,0.3,3.9,0.8V116.7z"/>
		<path d="M161.3,117.5v-6.4h4.3v16.5h-4.3v-6.7h-6.2v6.7h-4.3v-16.5h4.3v6.4H161.3z"/>
		<path d="M169,111.2h4.3l7.8,10.1h0v-10.1h4.3v16.5h-4.3l-7.8-10.1h0v10.1H169V111.2z"/>
		<path d="M206.3,119.1c0,5.3-3.8,9.1-9.1,9.1c-5.3,0-9.1-3.8-9.1-9.1c0-5,4.4-8.5,9.1-8.5S206.3,114.1,206.3,119.1z M192.5,119.1
			c0,2.8,2.1,4.9,4.7,4.9c2.6,0,4.7-2.1,4.7-4.9c0-2.3-2.1-4.3-4.7-4.3C194.6,114.8,192.5,116.9,192.5,119.1z"/>
		<path d="M213.2,124h5.1v3.6h-9.4v-16.5h4.3V124z"/>
		<path d="M237.8,119.1c0,5.3-3.8,9.1-9.1,9.1c-5.3,0-9.1-3.8-9.1-9.1c0-5,4.4-8.5,9.1-8.5S237.8,114.1,237.8,119.1z M224,119.1
			c0,2.8,2.1,4.9,4.7,4.9c2.6,0,4.7-2.1,4.7-4.9c0-2.3-2.1-4.3-4.7-4.3C226.1,114.8,224,116.9,224,119.1z"/>
		<path d="M256.8,118.5c0,2.4-0.2,4.5-1.7,6.5c-1.6,2.2-4,3.2-6.8,3.2c-5.2,0-8.8-3.5-8.8-8.7c0-5.3,3.6-8.9,8.9-8.9
			c3.4,0,6,1.5,7.4,4.6l-4.1,1.7c-0.6-1.6-1.8-2.6-3.6-2.6c-2.8,0-4.3,2.7-4.3,5.2c0,2.6,1.5,5.2,4.3,5.2c1.9,0,3.3-1,3.4-2.9h-3.5
			v-3.4H256.8z"/>
		<path d="M257.7,111.2h5.1l3.1,4.5l3.1-4.5h5.1l-6.1,8.6v7.9h-4.3v-7.9L257.7,111.2z"/>
	</g>
</g>
</svg>
