<?xml version="1.0" encoding="utf-8"?>
<!-- Generator: Adobe Illustrator 23.0.1, SVG Export Plug-In . SVG Version: 6.00 Build 0)  -->
<svg version="1.1" id="Layer_1" xmlns="http://www.w3.org/2000/svg" xmlns:xlink="http://www.w3.org/1999/xlink" x="0px" y="0px"
	 viewBox="0 0 249.9 92.7" style="enable-background:new 0 0 249.9 92.7;" xml:space="preserve">
<style type="text/css">
	.st0{fill:#00549D;}
</style>
<g>
	<g>
		<path class="st0" d="M99.3,14.4c3.7,0,7,0.6,10.7,2.3l-1.4,4.5h-0.5c-0.5-1.1-2.1-4.3-8.7-4.3c-7.6,0-11.7,5-11.7,13.6
			c0,3.5,0.6,6.8,2.8,9.5c1.6,2.1,4.1,4.2,8.3,4.2c2.1,0,4.7-0.5,6.5-1.6c0.1-3.2,0.1-3.6,0.1-4.2c0-2.2-0.1-4.5-0.3-6.7
			c1,0.1,2.1,0.3,3.2,0.3c1.3,0,1.9-0.1,2.9-0.3c-0.3,1.6-0.4,6.4-0.4,7.7c0,1.7,0,2.9,0.1,4.2c-3.9,2.1-8.9,3.2-13.2,3.2
			c-8.9,0-16.3-5.5-16.3-15.8C81.5,21.7,87.1,14.4,99.3,14.4z"/>
		<path class="st0" d="M118,28.9c0-1.9,0-2.8-0.3-4.8c1.1,0.2,2,0.3,2.9,0.3c1,0,2-0.1,3-0.3c-0.4,2.1-0.5,7.9-0.5,9.9
			c0,1.3,0,5.1,0.3,6.1c0.5,1.9,2.2,3,4,3c2.8,0,4-2,4.3-2.6c0.6-1.2,0.8-3.9,0.8-5.6c0-3.2,0-8-0.3-10.8c0.8,0.1,1.8,0.3,2.6,0.3
			c0.7,0,1.6,0,3.1-0.3c-0.3,4.1-0.5,8.1-0.5,12.2c0,5.8,0.1,7.2,0.4,9.7c-1.3-0.1-2.1-0.3-2.9-0.3c-0.9,0-1.6,0.1-2.6,0.3
			c0.2-1.7,0.2-1.7,0.2-3.7c-1.2,1.6-3.3,4.2-7.4,4.2c-2.6,0-5.1-1.2-6.4-3.6c-0.9-1.6-0.9-3.8-0.9-4.4
			C117.8,35.3,118,32.1,118,28.9z"/>
		<path class="st0" d="M144.3,40.9c0.4,1,1.4,3.5,5.6,3.5c2.3,0,3.4-1.6,3.4-3.2c0-1.9-1.8-2.5-3.9-3.3c-0.6-0.2-2.7-1-3.1-1.1
			c-0.9-0.5-3.6-1.6-3.6-5.8c0-4.1,2.9-7,7.9-7c2.7,0,4.8,0.8,6.1,1.4c-0.9,1.8-1,3.1-1.1,4.1h-0.7c-0.7-1.5-1.6-3.2-4.4-3.2
			c-2.2,0-3.7,1.1-3.7,3c0,2,1.6,2.5,5,3.7c2.9,1,6.2,2,6.2,6.4c0,2.8-2.2,7.5-8.7,7.5c-2.6,0-4.4-0.8-6.8-1.8
			c0.1-0.4,0.5-1.2,0.7-1.9c0.2-0.8,0.2-1.6,0.3-2.1H144.3z"/>
		<path class="st0" d="M168.2,46c-0.9-0.1-1.7-0.3-2.6-0.3c-1.1,0-2.6,0.2-3,0.3c0.3-4.9,0.3-5.8,0.3-12c0-5-0.2-7.4-0.4-9.9
			c1,0.1,1.9,0.3,3.1,0.3c1.1,0,1.7-0.1,2.4-0.3c-0.2,1.1-0.2,1.4-0.3,4.1c1.6-2.7,3.8-4.2,6.9-4.2c4.7,0,6,2.8,6.7,4.2
			c1.5-2.3,3.8-4.2,7.4-4.2c5.2,0,6.9,3.9,6.9,6.4c0,1.9-0.1,4.8-0.1,6.7c0,1.9,0,7.3,0.3,9c-1.2-0.1-2.1-0.3-2.9-0.3
			c-0.9,0-2.3,0.2-2.8,0.3c0.2-2.2,0.4-5.6,0.4-8.1c0-1,0-5.2,0-6.1c-0.1-1.3-0.4-4.7-3.9-4.7c-4.8,0-4.8,4.6-4.8,10.4
			c0,2.8,0.2,5.7,0.3,8.4c-0.9-0.1-1.8-0.3-2.8-0.3c-0.9,0-1.6,0.1-3,0.3c0.4-2.7,0.4-7.6,0.4-8.9c0-3.1,0-5.9-0.3-7.2
			c-0.4-1.6-1.5-2.8-4-2.8c-1.7,0-3.2,1.1-3.9,2.6c-0.6,1.4-0.6,4.5-0.6,6.4C167.9,39.5,167.9,42.8,168.2,46z"/>
		<path class="st0" d="M206.7,35.3c0,1.7,0,8.6,7.3,8.6c2.1,0,5-1.1,6.5-2.9l0.5,0.3c-0.1,0.3-0.3,0.6-0.4,1l-0.4,2
			c-0.3,0.4-3.3,2.3-7.7,2.3c-1.7,0-5.8-0.5-8.3-3c-3-3.1-3.1-7.1-3.1-8.7c0-7.6,5.2-11,10.6-11c1.7,0,6.3,0,8.6,4.2
			c0.8,1.5,1.5,3.8,1.3,7.3H206.7z M216.4,33c0-2.2,0-7.4-4.6-7.4c-4.7,0-5,5.7-5.1,7.4H216.4z"/>
		<path class="st0" d="M227,41.5c0.1-2,0.1-5.5,0.1-7.3c0-5-0.1-6.1-0.3-10.1c1.1,0.2,1.8,0.3,3,0.3c1.1,0,1.9-0.1,2.6-0.3
			c-0.3,2.3-0.3,2.6-0.3,4.8c1.2-2,3.1-5,6.7-5c0.5,0,0.8,0,1.2,0.1c-0.4,0.7-0.4,2.6-0.4,3.3c0,0.7,0.1,1.4,0.2,2l-0.3,0.2
			c-0.8-0.6-2.5-0.6-2.7-0.6c-2.1,0-3.5,1.3-4.1,2.5c-0.3,0.7-0.5,1.4-0.5,4.5c0,2.9,0.1,7.3,0.4,10.2c-0.5,0-1.7-0.3-2.6-0.3
			c-0.8,0-1.8,0.1-3.2,0.3L227,41.5z"/>
	</g>
	<g>
		<path class="st0" d="M10.8,26L10.8,26L33,3.7l-2.2-2.2L8.6,23.8l0,0l-6.7,6.8c2.3-1,4.7-2,7.2-2.9L10.8,26z"/>
		<path class="st0" d="M17.8,32.4l0.7-0.7c-7.2,3.8-13.1,8.4-13.3,13.2c0,0.1,0,0.2,0,0.3L17.8,32.4L17.8,32.4z"/>
		<path class="st0" d="M4.2,61.9L6.4,64l1.3-1.3c-1-0.4-2-0.9-3-1.3L4.2,61.9z"/>
		<path class="st0" d="M28.2,42.1L28.2,42.1l21.5-21.6l-2.2-2.2L25.9,40l0,0L11.5,54.6c0.9,0.6,1.8,1.1,2.8,1.6L28.2,42.1z"/>
		<path class="st0" d="M25.6,51.5l0.1-4.4l-9.8,9.8c1.1,0.5,2.1,0.9,3.1,1.2L25.6,51.5z"/>
		<path class="st0" d="M7.6,65.3l2.2,2.2l2.8-2.8c-1.1-0.4-2.1-0.8-3.2-1.2L7.6,65.3z"/>
		<polygon class="st0" points="31.5,45.6 31.5,45.6 53,23.9 50.9,21.7 29.2,43.4 29.3,43.5 26.8,46 31.1,46 		"/>
		<path class="st0" d="M21.2,35.6l9.4-9.5c-2.4,0.9-5,2-7.5,3.2L19,33.5l0,0L5.4,47.2c0.3,1.1,0.7,2.1,1.3,3L21.2,35.6L21.2,35.6z"
			/>
		<path class="st0" d="M36.3,7.1l-2.1-2.2L12.6,26.5c2.1-0.7,4.2-1.3,6.2-1.9L36.3,7.1z"/>
		<path class="st0" d="M39.6,10.4l-2.2-2.2L22,23.8c2-0.5,3.9-1,5.8-1.4L39.6,10.4z"/>
		<path class="st0" d="M42.9,20.6l3.4-3.4l-2.2-2.2l-4.9,4.9c2.3-0.4,3.7-0.7,3.7-0.7L42.9,20.6z"/>
		<path class="st0" d="M22.5,36.7L22.5,36.7L7.8,51.5c0.7,0.8,1.4,1.4,2.3,2.1l14.7-14.7l0,0l16.3-16.4c-1.5,0.5-3.8,1.3-6.6,2.3
			L22.5,36.7z"/>
		<path class="st0" d="M43,13.8l-2.2-2.2l-10,10c2-0.5,3.9-0.8,5.5-1.2L43,13.8z"/>
		<polygon class="st0" points="76.6,47.6 74.4,45.5 53.2,66.8 53.2,66.7 31.1,89.1 33.2,91.2 55.4,69 55.4,68.9 		"/>
		<polygon class="st0" points="63.2,34.3 61.1,32 42.8,50.3 42.8,54.7 		"/>
		<polygon class="st0" points="42.9,47.9 59.9,30.8 57.7,28.6 40.4,46 42.9,46 		"/>
		<polygon class="st0" points="56.5,27.4 54.4,25.2 33.7,46 38.1,46 		"/>
		<path class="st0" d="M51.9,65.7l21.3-21.4l-2.2-2.2L49.7,63.6l0,0l-7,7l0,2.4c0,0-0.7-0.1-2-0.4l-13,13.1l2.2,2.2L51.9,65.7
			L51.9,65.7z"/>
		<path class="st0" d="M24.4,82.3l2.2,2.2l12.2-12.3c-1-0.2-2.2-0.5-3.5-0.8L24.4,82.3z"/>
		<polygon class="st0" points="48.5,62.5 48.5,62.4 69.9,40.9 67.7,38.8 46.2,60.3 46.2,60.4 42.8,63.8 42.8,68.2 		"/>
		<path class="st0" d="M18,75.3l2.2,2.2l8-8c-1.1-0.3-2.2-0.6-3.4-1L18,75.3z"/>
		<path class="st0" d="M14.5,72.1l2.2,2.2l6.2-6.3c-1.1-0.3-2.2-0.7-3.3-1L14.5,72.1z"/>
		<path class="st0" d="M11.2,68.6l2.2,2.2l4.4-4.4c-1.1-0.4-2.2-0.7-3.2-1.1L11.2,68.6z"/>
		<path class="st0" d="M24.5,59.6l1-1l0.1-4.4l-4.5,4.6C22.5,59.2,23.7,59.4,24.5,59.6z"/>
		<path class="st0" d="M21,79l2.2,2.2l10.2-10.2c-1.1-0.3-2.2-0.6-3.5-0.9L21,79z"/>
		<polygon class="st0" points="42.8,61.5 45,59.2 45,59.2 66.5,37.6 64.4,35.4 42.8,57 		"/>
	</g>
	<g>
		<path class="st0" d="M84.6,62.5c1.2,0,3.8,0,5-0.2c-0.1,0.2-0.1,0.5-0.1,0.8c0,0.3,0,0.6,0.1,0.8c-0.6,0-1.2-0.1-1.8-0.1
			c-1.1,0-2.1,0-3.2,0V70c0.6,0,3.5-0.1,5.5-0.2c-0.1,0.2-0.1,0.4-0.1,0.8c0,0.3,0,0.6,0.1,0.8c-1.4-0.1-2.8-0.1-4.2-0.1
			c-1.4,0-2.8,0-4.3,0.1c0-1,0.1-1.9,0.1-2.9c0-1.3,0.1-4.1,0.1-5.2c0-1,0-5.4-0.2-7.7c1.1,0.1,2.9,0.1,4.2,0.1
			c1.1,0,2.6-0.1,4.2-0.1c-0.1,0.3-0.1,0.5-0.1,0.7c0,0.3,0,0.7,0.1,0.8l-2.2-0.1c-0.9,0-1.1,0-3.2,0V62.5z"/>
		<path class="st0" d="M102.6,68.6c0,1.1,0.1,2.3,0.2,2.8c-0.5,0-1-0.1-1.5-0.1c-0.5,0-1.1,0.1-1.5,0.1c0.2-1.1,0.3-3.3,0.3-4.3
			c0-1.2,0-3.1-0.2-3.7c-0.3-1.1-1.1-1.5-2.1-1.5c-0.9,0-1.7,0.6-2,1.3c-0.3,0.7-0.4,2.3-0.4,3c0,2.1,0,3.6,0.2,5.2
			c-0.2,0-1.2-0.1-1.4-0.1c-0.5,0-1,0.1-1.4,0.1c0.2-3.1,0.2-3.4,0.2-6.1c0-2.9,0-3.2-0.2-4.9c0.2,0,0.7,0.1,1.5,0.1
			c0.6,0,0.9-0.1,1.3-0.1c-0.1,0.7-0.1,0.8-0.1,1.9c0.9-1.3,1.8-2,3.6-2c2.5,0,3.8,1.4,3.8,3.9C102.7,64.8,102.6,67.5,102.6,68.6z"
			/>
		<path class="st0" d="M109.3,56.4c-0.1,0.3-0.1,0.7-0.2,4.2c1,0,1.2,0,1.6,0l0.9-0.1c0,0.2-0.1,0.3-0.1,0.6c0,0.3,0,0.5,0.1,0.7
			c-1-0.1-1.2-0.1-2.5-0.1c0,1-0.1,3.5-0.1,4.4c0,3.4,0.1,4.4,1.7,4.4c0.5,0,0.9-0.2,1.4-0.5c0,0.1-0.1,0.4-0.1,0.6
			c0,0.2,0,0.4,0.1,0.5c-0.7,0.3-1.8,0.7-2.6,0.7c-0.6,0-1.5-0.2-2.1-0.6c-0.8-0.6-1-1.7-1-2.6c0-1,0.1-5,0.1-6.9h-0.7
			c-0.4,0-0.8,0-1.1,0.1c0-0.1,0.1-0.3,0.1-0.5c0-0.3,0-0.5-0.1-0.7c0.2,0,0.5,0.1,0.8,0.1h1c0-0.6,0-1.6,0-2.6
			c1.3-0.6,2.2-1.2,2.6-1.6L109.3,56.4z"/>
		<path class="st0" d="M115.8,66c0,0.9,0,4.3,3.7,4.3c1,0,2.5-0.6,3.3-1.4l0.3,0.2c-0.1,0.2-0.1,0.3-0.2,0.5l-0.2,1
			c-0.2,0.2-1.7,1.2-3.9,1.2c-0.9,0-2.9-0.2-4.2-1.5c-1.5-1.5-1.5-3.6-1.5-4.4c0-3.8,2.6-5.6,5.3-5.6c0.8,0,3.2,0,4.3,2.1
			c0.4,0.7,0.7,1.9,0.7,3.7H115.8z M120.7,64.9c0-1.1,0-3.7-2.3-3.7c-2.4,0-2.5,2.9-2.6,3.7H120.7z"/>
		<path class="st0" d="M126,69.2c0-1,0-2.8,0-3.7c0-2.5,0-3.1-0.2-5.1c0.5,0.1,0.9,0.1,1.5,0.1c0.5,0,0.9,0,1.3-0.1
			c-0.1,1.2-0.1,1.3-0.1,2.4c0.6-1,1.5-2.5,3.4-2.5c0.2,0,0.4,0,0.6,0.1c-0.2,0.3-0.2,1.3-0.2,1.7c0,0.4,0,0.7,0.1,1l-0.2,0.1
			c-0.4-0.3-1.2-0.3-1.4-0.3c-1,0-1.8,0.6-2,1.2c-0.2,0.3-0.3,0.7-0.3,2.3c0,1.5,0.1,3.7,0.2,5.1c-0.3,0-0.9-0.1-1.3-0.1
			c-0.4,0-0.9,0.1-1.6,0.1L126,69.2z"/>
		<path class="st0" d="M136.9,62c0.6-0.9,1.7-1.9,3.6-1.9c3.1,0,4.9,2.9,4.9,5.7c0,2.6-1.4,5.7-5.2,5.7c-1.8,0-2.6-0.8-3.3-1.5
			c0,3.4,0.1,5.4,0.3,7.4c-0.5-0.1-0.7-0.1-1.5-0.1c-0.6,0-0.9,0-1.4,0.1c0.2-2.9,0.3-7.2,0.3-8.6c0-2.4,0-6-0.3-8.4
			c0.4,0,0.9,0.1,1.4,0.1c0.5,0,0.9-0.1,1.2-0.1L136.9,62z M139.8,61.5c-2.3,0-2.8,2.7-2.8,4.4c0,2,0.5,4.4,2.9,4.4
			c2.2,0,2.7-2.6,2.7-4.3C142.6,64.7,142.4,61.5,139.8,61.5z"/>
		<path class="st0" d="M148.1,69.2c0-1,0-2.8,0-3.7c0-2.5,0-3.1-0.2-5.1c0.5,0.1,0.9,0.1,1.5,0.1c0.5,0,0.9,0,1.3-0.1
			c-0.1,1.2-0.1,1.3-0.1,2.4c0.6-1,1.5-2.5,3.4-2.5c0.2,0,0.4,0,0.6,0.1c-0.2,0.3-0.2,1.3-0.2,1.7c0,0.4,0,0.7,0.1,1l-0.2,0.1
			c-0.4-0.3-1.2-0.3-1.4-0.3c-1,0-1.8,0.6-2,1.2c-0.2,0.3-0.3,0.7-0.3,2.3c0,1.5,0.1,3.7,0.2,5.1c-0.3,0-0.9-0.1-1.3-0.1
			c-0.4,0-0.9,0.1-1.6,0.1L148.1,69.2z"/>
		<path class="st0" d="M158.1,58.3c0.8,0,1.6-0.7,1.6-1.6c0-0.9-0.8-1.6-1.6-1.6c-0.8,0-1.6,0.8-1.6,1.6
			C156.6,57.6,157.3,58.3,158.1,58.3z M156.7,71.4c0.5-0.1,1-0.1,1.6-0.1c0.5,0,0.9,0.1,1.3,0.1c0-0.3-0.1-1.6-0.1-1.9
			c0-0.8-0.1-3.2-0.1-4.2c0-0.8,0.1-3,0.1-3.9l0-1c-0.4,0.1-0.7,0.1-1.4,0.1c-0.7,0-1.1-0.1-1.5-0.1c0.2,1.6,0.2,4.1,0.2,5.7
			c0,0.9,0,1.7-0.1,2.9L156.7,71.4z"/>
		<path class="st0" d="M162.9,68.8c0.2,0.5,0.7,1.7,2.8,1.7c1.1,0,1.7-0.8,1.7-1.6c0-1-0.9-1.3-2-1.7c-0.3-0.1-1.4-0.5-1.6-0.6
			c-0.5-0.2-1.8-0.8-1.8-2.9c0-2.1,1.4-3.5,4-3.5c1.4,0,2.4,0.4,3.1,0.7c-0.5,0.9-0.5,1.5-0.6,2h-0.4c-0.4-0.7-0.8-1.6-2.2-1.6
			c-1.1,0-1.9,0.6-1.9,1.5c0,1,0.8,1.3,2.5,1.8c1.4,0.5,3.1,1,3.1,3.2c0,1.4-1.1,3.8-4.4,3.8c-1.3,0-2.2-0.4-3.4-0.9
			c0.1-0.2,0.3-0.6,0.3-1c0.1-0.4,0.1-0.8,0.2-1.1H162.9z"/>
		<path class="st0" d="M174.3,66c0,0.9,0,4.3,3.7,4.3c1,0,2.5-0.6,3.3-1.4l0.3,0.2c-0.1,0.2-0.1,0.3-0.2,0.5l-0.2,1
			c-0.2,0.2-1.7,1.2-3.9,1.2c-0.9,0-2.9-0.2-4.2-1.5c-1.5-1.5-1.5-3.6-1.5-4.4c0-3.8,2.6-5.6,5.3-5.6c0.9,0,3.2,0,4.3,2.1
			c0.4,0.7,0.7,1.9,0.7,3.7H174.3z M179.2,64.9c0-1.1,0-3.7-2.3-3.7c-2.4,0-2.5,2.9-2.6,3.7H179.2z"/>
		<path class="st0" d="M184.6,68.8c0.2,0.5,0.7,1.7,2.8,1.7c1.2,0,1.7-0.8,1.7-1.6c0-1-0.9-1.3-2-1.7c-0.3-0.1-1.4-0.5-1.6-0.6
			c-0.5-0.2-1.8-0.8-1.8-2.9c0-2.1,1.5-3.5,4-3.5c1.4,0,2.4,0.4,3.1,0.7c-0.5,0.9-0.5,1.5-0.6,2h-0.4c-0.4-0.7-0.8-1.6-2.2-1.6
			c-1.1,0-1.9,0.6-1.9,1.5c0,1,0.8,1.3,2.5,1.8c1.5,0.5,3.1,1,3.1,3.2c0,1.4-1.1,3.8-4.4,3.8c-1.3,0-2.2-0.4-3.4-0.9
			c0.1-0.2,0.3-0.6,0.3-1c0.1-0.4,0.1-0.8,0.2-1.1H184.6z"/>
		<path class="st0" d="M192.8,75.5l-0.5-0.2l1.4-5.4c0.2-0.8,0.6-1.7,1.5-1.7c0.6,0,1.2,0.4,1.2,1.2c0,0.6-0.3,1.1-0.6,1.5
			L192.8,75.5z"/>
		<path class="st0" d="M205.6,55.7c0.4,0,1.3,0.1,1.6,0.1c0.5,0,1.1-0.1,1.6-0.1c-0.3,1.7-0.3,5.7-0.3,8c0,3.4,0,5.9,0.2,7.8
			c-0.5,0-1.1-0.1-1.6-0.1c-0.5,0-1.1,0.1-1.7,0.1c0.3-2.7,0.3-6.5,0.3-10.5C205.8,59.5,205.8,57.9,205.6,55.7z"/>
		<path class="st0" d="M222.3,68.6c0,1.1,0.1,2.3,0.2,2.8c-0.5,0-1-0.1-1.5-0.1c-0.5,0-1.1,0.1-1.5,0.1c0.2-1.1,0.3-3.3,0.3-4.3
			c0-1.2,0-3.1-0.2-3.7c-0.3-1.1-1.2-1.5-2.1-1.5c-0.9,0-1.7,0.6-2,1.3c-0.3,0.7-0.4,2.3-0.4,3c0,2.1,0,3.6,0.2,5.2
			c-0.2,0-1.2-0.1-1.4-0.1c-0.5,0-1,0.1-1.5,0.1c0.2-3.1,0.2-3.4,0.2-6.1c0-2.9,0-3.2-0.2-4.9c0.2,0,0.7,0.1,1.5,0.1
			c0.6,0,0.9-0.1,1.3-0.1c-0.1,0.7-0.1,0.8-0.1,1.9c0.9-1.3,1.8-2,3.6-2c2.5,0,3.8,1.4,3.8,3.9C222.4,64.8,222.3,67.5,222.3,68.6z"
			/>
		<path class="st0" d="M234.7,69.3c-0.3,0.5-0.4,1.1-0.5,1.6c-1.3,0.7-2.5,0.8-3.4,0.8c-3.8,0-5.7-2.9-5.7-5.6c0-3,1.9-5.9,6-5.9
			c1.4,0,2.3,0.3,3.5,0.8c-0.2,0.3-0.4,1-0.5,2.2h-0.4c0-0.1-0.5-1.9-2.4-1.9c-1.1,0-2,0.6-2.5,1.3c-0.6,0.9-0.7,1.9-0.7,3.1
			c0,2.3,0.8,4.7,3.4,4.7c1.3,0,2-0.6,2.8-1.4L234.7,69.3z"/>
		<path class="st0" d="M238.1,68.2c0.9,0,1.6,0.8,1.6,1.6c0,0.9-0.8,1.6-1.6,1.6c-0.9,0-1.6-0.8-1.6-1.6
			C236.5,69,237.2,68.2,238.1,68.2z"/>
		<g>
			<path class="st0" d="M244.2,60.1c-1.1,0-2.1-0.4-2.9-1.2c-0.8-0.8-1.2-1.8-1.2-2.9c0-1.1,0.4-2.1,1.2-2.9
				c0.8-0.8,1.8-1.2,2.9-1.2c1.1,0,2.1,0.4,2.9,1.2c0.8,0.8,1.2,1.8,1.2,2.9c0,1.1-0.4,2.1-1.2,2.9
				C246.3,59.7,245.4,60.1,244.2,60.1z M240.5,56c0,1,0.4,1.9,1.1,2.6c0.7,0.7,1.6,1.1,2.6,1.1c1,0,1.9-0.4,2.6-1.1
				c0.7-0.7,1.1-1.6,1.1-2.6c0-1-0.4-1.9-1.1-2.6c-0.7-0.7-1.6-1.1-2.6-1.1c-1,0-1.9,0.4-2.6,1.1C240.9,54.1,240.5,55,240.5,56z
				 M242.6,58.2c0-0.8,0.1-1.7,0.1-2.7c0-0.9,0-1.6-0.1-2.1c0.3,0,0.6,0,0.9,0c0,0,0.2,0,0.5,0c0.3,0,0.5,0,0.5,0
				c0.4,0,0.8,0.1,1,0.3c0.3,0.2,0.4,0.5,0.4,0.8c0,0.3-0.1,0.6-0.3,0.8c-0.2,0.2-0.5,0.4-0.8,0.4l1.5,2.3c-0.2,0-0.4,0-0.6,0
				c-0.2,0-0.4,0-0.6,0c-0.2-0.4-0.5-0.9-0.8-1.4c-0.3-0.5-0.5-0.8-0.5-0.8h-0.1c0,1,0,1.7,0.1,2.2c-0.1,0-0.3,0-0.5,0
				C242.9,58.2,242.7,58.2,242.6,58.2z M243.7,53.8c0,0.7-0.1,1.3-0.1,1.9h0.1c0.7,0,1.1-0.3,1.1-1c0-0.3-0.1-0.5-0.2-0.7
				C244.4,53.9,244.1,53.8,243.7,53.8z"/>
		</g>
	</g>
</g>
</svg>
