<?xml version="1.0" encoding="utf-8"?>
<!-- Generator: Adobe Illustrator 23.0.1, SVG Export Plug-In . SVG Version: 6.00 Build 0)  -->
<svg version="1.1" id="Layer_1" xmlns="http://www.w3.org/2000/svg" xmlns:xlink="http://www.w3.org/1999/xlink" x="0px" y="0px"
	 viewBox="0 0 152.9 137.7" style="enable-background:new 0 0 152.9 137.7;" xml:space="preserve">
<style type="text/css">
	.st0{fill:none;stroke:#FFFFFF;stroke-width:4;stroke-miterlimit:10;}
	.st1{fill:#FFFFFF;}
</style>
<g>
	<g>
		<line class="st0" x1="115" y1="95.9" x2="115" y2="42.5"/>
		<polyline class="st0" points="125.9,56.9 115,41.5 104.2,56.9 		"/>
	</g>
	<line class="st0" x1="32.4" y1="96.7" x2="91.6" y2="37.6"/>
	<path class="st1" d="M58.3,50.1c0,7.1-5.9,13.2-12.9,13c-8.6-0.2-13.1-7.3-12.9-13c0.1-7.4,5.7-13.1,13-13.1
		C52.6,37,58.3,42.8,58.3,50.1z M53.8,50.1c0-5-3.6-8.6-8.5-8.6c-4.7,0-8.5,3.7-8.6,8.5c-0.1,4.7,3.9,8.7,8.6,8.7
		C50,58.7,53.8,54.8,53.8,50.1z"/>
	<path class="st1" d="M89,86.3c0,7.1-5.9,13.2-12.9,13c-8.6-0.2-13.1-7.3-12.9-13c0.1-7.4,5.7-13.1,13-13.1
		C83.3,73.3,89,79.1,89,86.3z M84.5,86.4c0-5-3.6-8.6-8.5-8.6c-4.7,0-8.5,3.7-8.6,8.5c-0.1,4.7,3.9,8.7,8.6,8.7
		C80.7,94.9,84.5,91.1,84.5,86.4z"/>
</g>
</svg>
